<svg width="25" height="24" viewBox="0 0 25 24" fill="none" xmlns="http://www.w3.org/2000/svg">
<path d="M15.7505 14H14.9605L14.6805 13.73C15.3054 13.0039 15.7622 12.1487 16.018 11.2256C16.2739 10.3024 16.3225 9.33413 16.1605 8.38998C15.6905 5.60998 13.3705 3.38997 10.5705 3.04997C9.58608 2.92544 8.58625 3.02775 7.64749 3.34906C6.70872 3.67038 5.85591 4.20219 5.15429 4.90381C4.45268 5.60542 3.92087 6.45824 3.59955 7.397C3.27823 8.33576 3.17593 9.33559 3.30046 10.32C3.64046 13.12 5.86046 15.44 8.64046 15.91C9.58462 16.072 10.5529 16.0234 11.4761 15.7675C12.3992 15.5117 13.2544 15.0549 13.9805 14.43L14.2505 14.71V15.5L18.5005 19.75C18.9105 20.16 19.5805 20.16 19.9905 19.75C20.4005 19.34 20.4005 18.67 19.9905 18.26L15.7505 14ZM9.75046 14C7.26046 14 5.25046 11.99 5.25046 9.49998C5.25046 7.00997 7.26046 4.99998 9.75046 4.99998C12.2405 4.99998 14.2505 7.00997 14.2505 9.49998C14.2505 11.99 12.2405 14 9.75046 14Z" fill="white"/>
</svg>
