<svg width="335" height="51" viewBox="0 0 335 51" fill="none" xmlns="http://www.w3.org/2000/svg">
<rect y="0.647949" width="335" height="50" rx="10" fill="#F4F4F4"/>
<rect x="122.5" y="17.1479" width="17" height="17" rx="8.5" fill="#F6F6F6"/>
<path d="M136.72 24.5053H136.25V24.4811H131V26.8145H134.297C133.816 28.1727 132.523 29.1478 131 29.1478C129.067 29.1478 127.5 27.5807 127.5 25.6478C127.5 23.7149 129.067 22.1478 131 22.1478C131.892 22.1478 132.704 22.4844 133.322 23.0342L134.972 21.3842C133.93 20.4132 132.537 19.8145 131 19.8145C127.779 19.8145 125.167 22.4263 125.167 25.6478C125.167 28.8692 127.779 31.4811 131 31.4811C134.222 31.4811 136.833 28.8692 136.833 25.6478C136.833 25.2567 136.793 24.8749 136.72 24.5053Z" fill="#FFC107"/>
<path d="M125.839 22.9327L127.756 24.3382C128.274 23.0543 129.53 22.1478 131 22.1478C131.892 22.1478 132.704 22.4844 133.322 23.0342L134.972 21.3842C133.93 20.4132 132.537 19.8145 131 19.8145C128.76 19.8145 126.816 21.0794 125.839 22.9327Z" fill="#FF3D00"/>
<path d="M131 31.4815C132.507 31.4815 133.876 30.9049 134.911 29.9671L133.106 28.4394C132.5 28.9 131.761 29.149 131 29.1481C129.483 29.1481 128.194 28.1807 127.709 26.8306L125.807 28.2962C126.772 30.1853 128.733 31.4815 131 31.4815Z" fill="#4CAF50"/>
<path d="M136.72 24.5057H136.25V24.4814H131V26.8148H134.297C134.067 27.4612 133.652 28.0261 133.105 28.4397L133.106 28.4391L134.911 29.9668C134.783 30.0829 136.833 28.5648 136.833 25.6481C136.833 25.257 136.793 24.8752 136.72 24.5057Z" fill="#1976D2"/>
<path d="M159.795 21.3647C159.795 22.1532 159.777 22.8527 159.74 23.4634C159.704 24.0695 159.613 24.7599 159.467 25.5347H161.176V26.7651H156.268V31.8784H154.736V26.7651H149.91V25.5347H157.922C158.072 24.7873 158.168 24.1082 158.209 23.4976C158.255 22.8869 158.277 22.217 158.277 21.4878H151.236V20.2573H159.795V21.3647ZM171.572 20.8452C171.572 21.4194 171.556 21.9412 171.524 22.4106C171.497 22.8755 171.428 23.3927 171.319 23.9624H172.953V25.1655H161.66V23.9624H169.788C169.888 23.4565 169.956 22.9894 169.993 22.561C170.029 22.1281 170.05 21.6838 170.054 21.228H163.054V20.0249H171.572V20.8452ZM171.558 29.4995H164.49V30.5522H171.873V31.7417H162.972V28.3374H170.041V27.3394H162.959V26.1499H171.558V29.4995ZM187.675 30.4292H176.382V29.1714H181.249V27.1616H177.721V23.1147H184.831V21.5835H177.694V20.353H186.335V24.3179H179.239V25.9175H186.622V27.1616H182.753V29.1714H187.675V30.4292ZM197.961 22.103C197.961 22.8413 197.952 23.4771 197.934 24.0103C197.92 24.5389 197.882 25.145 197.818 25.8286C197.754 26.5122 197.651 27.2573 197.51 28.064L195.965 27.9272C196.116 27.1753 196.225 26.4644 196.293 25.7944C196.362 25.12 196.403 24.5184 196.416 23.9897C196.435 23.4565 196.444 22.8276 196.444 22.103V21.939H189.321V20.7085H197.961V22.103ZM199.397 30.1694H188.131V28.9253H199.397V30.1694ZM210.176 28.4468H208.645V19.519H210.176V28.4468ZM210.518 31.6187H202V27.5444H203.531V30.3882H210.518V31.6187ZM203.436 20.3257C204.055 20.3257 204.618 20.4601 205.124 20.729C205.63 20.9933 206.029 21.3602 206.32 21.8296C206.612 22.299 206.758 22.8276 206.758 23.4155C206.758 24.0125 206.612 24.548 206.32 25.022C206.029 25.4914 205.63 25.8582 205.124 26.1226C204.618 26.3869 204.055 26.519 203.436 26.519C202.811 26.519 202.244 26.3869 201.733 26.1226C201.228 25.8582 200.829 25.4914 200.537 25.022C200.245 24.548 200.1 24.0125 200.1 23.4155C200.1 22.8276 200.245 22.299 200.537 21.8296C200.829 21.3602 201.228 20.9933 201.733 20.729C202.244 20.4601 202.811 20.3257 203.436 20.3257ZM203.436 21.6519C203.085 21.6519 202.768 21.7248 202.485 21.8706C202.203 22.0164 201.982 22.2238 201.822 22.4927C201.663 22.7616 201.585 23.0692 201.59 23.4155C201.585 23.771 201.663 24.0832 201.822 24.3521C201.982 24.6209 202.203 24.8283 202.485 24.9741C202.768 25.12 203.085 25.1929 203.436 25.1929C203.777 25.1929 204.087 25.12 204.365 24.9741C204.643 24.8283 204.862 24.6209 205.021 24.3521C205.186 24.0832 205.268 23.771 205.268 23.4155C205.268 23.0692 205.186 22.7616 205.021 22.4927C204.862 22.2238 204.643 22.0164 204.365 21.8706C204.087 21.7248 203.777 21.6519 203.436 21.6519Z" fill="#121212"/>
</svg>
