<svg width="335" height="51" viewBox="0 0 335 51" fill="none" xmlns="http://www.w3.org/2000/svg">
<rect y="0.647949" width="335" height="50" rx="10" fill="#1F1F1F"/>
<path d="M122.703 30.4292H111.41V29.1714H116.277V27.1616H112.75V23.1147H119.859V21.5835H112.723V20.353H121.363V24.3179H114.268V25.9175H121.65V27.1616H117.781V29.1714H122.703V30.4292ZM132.99 22.103C132.99 22.8413 132.981 23.4771 132.962 24.0103C132.949 24.5389 132.91 25.145 132.846 25.8286C132.782 26.5122 132.68 27.2573 132.539 28.064L130.994 27.9272C131.144 27.1753 131.254 26.4644 131.322 25.7944C131.39 25.12 131.431 24.5184 131.445 23.9897C131.463 23.4565 131.472 22.8276 131.472 22.103V21.939H124.349V20.7085H132.99V22.103ZM134.425 30.1694H123.16V28.9253H134.425V30.1694ZM145.204 28.4468H143.673V19.519H145.204V28.4468ZM145.546 31.6187H137.029V27.5444H138.56V30.3882H145.546V31.6187ZM138.464 20.3257C139.084 20.3257 139.647 20.4601 140.153 20.729C140.658 20.9933 141.057 21.3602 141.349 21.8296C141.64 22.299 141.786 22.8276 141.786 23.4155C141.786 24.0125 141.64 24.548 141.349 25.022C141.057 25.4914 140.658 25.8582 140.153 26.1226C139.647 26.3869 139.084 26.519 138.464 26.519C137.84 26.519 137.272 26.3869 136.762 26.1226C136.256 25.8582 135.857 25.4914 135.566 25.022C135.274 24.548 135.128 24.0125 135.128 23.4155C135.128 22.8276 135.274 22.299 135.566 21.8296C135.857 21.3602 136.256 20.9933 136.762 20.729C137.272 20.4601 137.84 20.3257 138.464 20.3257ZM138.464 21.6519C138.113 21.6519 137.796 21.7248 137.514 21.8706C137.231 22.0164 137.01 22.2238 136.851 22.4927C136.691 22.7616 136.614 23.0692 136.618 23.4155C136.614 23.771 136.691 24.0832 136.851 24.3521C137.01 24.6209 137.231 24.8283 137.514 24.9741C137.796 25.12 138.113 25.1929 138.464 25.1929C138.806 25.1929 139.116 25.12 139.394 24.9741C139.672 24.8283 139.89 24.6209 140.05 24.3521C140.214 24.0832 140.296 23.771 140.296 23.4155C140.296 23.0692 140.214 22.7616 140.05 22.4927C139.89 22.2238 139.672 22.0164 139.394 21.8706C139.116 21.7248 138.806 21.6519 138.464 21.6519ZM152.434 28.064H154.061V26.7378H155.469V30.6616C155.934 30.4657 156.326 30.2059 156.645 29.8823C156.964 29.5588 157.201 29.2033 157.356 28.8159C157.511 28.4285 157.588 28.0321 157.588 27.6265V26.6421H159.106V27.6265C159.106 28.3101 159.288 28.9276 159.653 29.479C160.017 30.0304 160.564 30.4292 161.293 30.6753L160.514 31.8101C159.985 31.6232 159.539 31.3521 159.174 30.9966C158.814 30.6411 158.534 30.2196 158.333 29.7319C158.119 30.2013 157.832 30.6138 157.472 30.9692C157.117 31.3293 156.69 31.6095 156.194 31.8101L155.469 30.7368V31.7144H151.012V26.7378H152.434V28.064ZM154.061 30.5522V29.1987H152.434V30.5522H154.061ZM153.063 20.0112C153.587 20.0112 154.07 20.1047 154.512 20.2915C154.959 20.4738 155.33 20.7336 155.626 21.0708C155.923 21.408 156.123 21.7977 156.228 22.2397H158.463V19.5054H159.981V26.0542H158.463V23.4976H156.235C156.135 23.9487 155.934 24.3475 155.633 24.6938C155.337 25.0402 154.966 25.3091 154.519 25.5005C154.077 25.6873 153.592 25.7808 153.063 25.7808C152.434 25.7808 151.871 25.6577 151.374 25.4116C150.882 25.1655 150.495 24.8237 150.212 24.3862C149.934 23.9442 149.795 23.4429 149.795 22.8823C149.795 22.3263 149.934 21.8319 150.212 21.3989C150.495 20.9614 150.882 20.6219 151.374 20.3804C151.871 20.1343 152.434 20.0112 153.063 20.0112ZM153.063 21.269C152.707 21.269 152.393 21.3351 152.12 21.4673C151.846 21.5994 151.632 21.7886 151.477 22.0347C151.322 22.2762 151.245 22.5588 151.245 22.8823C151.245 23.2104 151.322 23.4998 151.477 23.7505C151.632 24.0011 151.846 24.1948 152.12 24.3315C152.398 24.4683 152.712 24.5366 153.063 24.5366C153.405 24.5366 153.71 24.4683 153.979 24.3315C154.252 24.1948 154.464 24.0011 154.615 23.7505C154.77 23.4998 154.849 23.2104 154.854 22.8823C154.849 22.5588 154.77 22.2762 154.615 22.0347C154.464 21.7886 154.255 21.5994 153.986 21.4673C153.717 21.3351 153.409 21.269 153.063 21.269ZM171.662 31.8784H170.131V19.5054H171.662V31.8784ZM165.004 20.4077C165.624 20.4077 166.175 20.5877 166.658 20.9478C167.146 21.3032 167.529 21.8114 167.807 22.4722C168.085 23.1284 168.226 23.894 168.23 24.769C168.226 25.6486 168.085 26.4188 167.807 27.0796C167.533 27.7404 167.153 28.2508 166.665 28.6108C166.177 28.9663 165.624 29.144 165.004 29.144C164.38 29.144 163.824 28.9663 163.336 28.6108C162.848 28.2508 162.465 27.7404 162.188 27.0796C161.914 26.4188 161.777 25.6486 161.777 24.769C161.777 23.894 161.914 23.1284 162.188 22.4722C162.465 21.8114 162.848 21.3032 163.336 20.9478C163.824 20.5877 164.38 20.4077 165.004 20.4077ZM165.004 21.7749C164.653 21.7749 164.343 21.8934 164.074 22.1304C163.81 22.3674 163.605 22.7114 163.459 23.1626C163.313 23.6138 163.24 24.1493 163.24 24.769C163.24 25.3934 163.313 25.9312 163.459 26.3823C163.605 26.8335 163.81 27.1799 164.074 27.4214C164.343 27.6584 164.653 27.7769 165.004 27.7769C165.35 27.7769 165.656 27.6584 165.92 27.4214C166.184 27.1799 166.389 26.8335 166.535 26.3823C166.681 25.9312 166.754 25.3934 166.754 24.769C166.754 24.1493 166.681 23.616 166.535 23.1694C166.389 22.7183 166.184 22.3742 165.92 22.1372C165.656 21.8957 165.35 21.7749 165.004 21.7749ZM186.042 23.7163H177.538V19.9429H185.933V21.1733H179.056V22.5132H186.042V23.7163ZM187.368 25.6987H182.474V26.6558H185.96V29.6636H178.933V30.5796H186.302V31.7417H177.443V28.5972H184.47V27.7769H177.429V26.6558H180.97V25.6987H176.103V24.4956H187.368V25.6987ZM198.202 31.8784H196.684V25.3022H194.565V24.0581H196.684V19.5054H198.202V31.8784ZM193.854 25.1108H189.807V27.7085C190.824 27.7039 191.712 27.6766 192.473 27.6265C193.239 27.5763 194.009 27.4806 194.784 27.3394L194.907 28.5835C194.037 28.7384 193.173 28.8433 192.316 28.8979C191.459 28.9526 190.45 28.98 189.288 28.98H188.304V23.8804H192.364V21.8159H188.262V20.5854H193.854V25.1108ZM210.895 30.3745H199.602V29.1304H204.469V26.7241H200.846V20.3257H202.364V22.3491H208.092V20.3257H209.61V26.7241H205.973V29.1304H210.895V30.3745ZM208.092 25.4937V23.5659H202.364V25.4937H208.092ZM221.674 31.8647H220.143V19.5054H221.674V31.8647ZM217.982 20.8179C217.982 22.7821 217.538 24.507 216.649 25.9927C215.761 27.4738 214.286 28.702 212.227 29.6772L211.434 28.4604C213.024 27.7039 214.22 26.7993 215.022 25.7466C215.829 24.6893 216.301 23.4474 216.438 22.021H212.062V20.8179H217.982Z" fill="#B3B3B3"/>
</svg>
