<svg width="335" height="50" viewBox="0 0 335 50" fill="none" xmlns="http://www.w3.org/2000/svg">
<rect width="335" height="50" rx="10" fill="#1F1F1F"/>
<path d="M155.189 26.2539H150.418V28.5234H148.914V26.2539H143.896V25.0371H155.189V26.2539ZM153.74 23.8887H145.332V19.418H153.74V23.8887ZM146.809 22.6992H152.236V20.6074H146.809V22.6992ZM153.945 30.9707H145.264V27.3887H146.781V29.7402H153.945V30.9707ZM159.666 19.7188C160.308 19.7142 160.887 19.8395 161.402 20.0947C161.921 20.3454 162.327 20.6986 162.619 21.1543C162.915 21.61 163.065 22.125 163.07 22.6992C163.065 23.278 162.915 23.7952 162.619 24.251C162.327 24.7067 161.924 25.0622 161.409 25.3174C160.894 25.568 160.313 25.6934 159.666 25.6934C159.023 25.6934 158.444 25.5658 157.929 25.3105C157.414 25.0553 157.009 24.7021 156.712 24.251C156.421 23.7952 156.275 23.278 156.275 22.6992C156.275 22.125 156.421 21.61 156.712 21.1543C157.009 20.6986 157.414 20.3454 157.929 20.0947C158.449 19.8395 159.028 19.7142 159.666 19.7188ZM159.666 21.0312C159.306 21.0312 158.982 21.0996 158.695 21.2363C158.408 21.373 158.182 21.569 158.018 21.8242C157.859 22.0749 157.779 22.3665 157.779 22.6992C157.779 23.0365 157.859 23.3327 158.018 23.5879C158.182 23.8385 158.408 24.0322 158.695 24.1689C158.982 24.3011 159.306 24.3672 159.666 24.3672C160.03 24.3672 160.356 24.3011 160.643 24.1689C160.935 24.0322 161.163 23.8385 161.327 23.5879C161.495 23.3327 161.58 23.0365 161.58 22.6992C161.58 22.3665 161.495 22.0749 161.327 21.8242C161.163 21.569 160.935 21.373 160.643 21.2363C160.356 21.0996 160.03 21.0312 159.666 21.0312ZM165.955 31.2305H164.437V18.8574H165.955V31.2305ZM155.714 27.4023C157.227 27.4023 158.64 27.3773 159.953 27.3271C161.27 27.2725 162.518 27.1608 163.699 26.9922L163.822 28.0996C162.601 28.3366 161.359 28.487 160.096 28.5508C158.838 28.6146 157.442 28.6465 155.906 28.6465L155.714 27.4023ZM177.089 23.7793H178.989V25.0371H177.089V31.2168H175.585V18.8574H177.089V23.7793ZM174.628 21.9746H167.341V20.7578H170.267V19.0352H171.784V20.7578H174.628V21.9746ZM171.032 22.7812C171.62 22.7812 172.149 22.9066 172.618 23.1572C173.092 23.4033 173.464 23.7474 173.733 24.1895C174.001 24.6315 174.136 25.1328 174.136 25.6934C174.136 26.2539 174.001 26.7552 173.733 27.1973C173.464 27.6348 173.092 27.9766 172.618 28.2227C172.149 28.4688 171.62 28.5918 171.032 28.5918C170.435 28.5918 169.9 28.4688 169.426 28.2227C168.952 27.9766 168.581 27.6348 168.312 27.1973C168.043 26.7552 167.911 26.2539 167.915 25.6934C167.911 25.1328 168.043 24.6315 168.312 24.1895C168.581 23.7474 168.952 23.4033 169.426 23.1572C169.9 22.9066 170.435 22.7812 171.032 22.7812ZM171.032 24.0254C170.709 24.0254 170.419 24.0938 170.164 24.2305C169.914 24.3672 169.718 24.5632 169.576 24.8184C169.435 25.069 169.364 25.3607 169.364 25.6934C169.364 26.026 169.435 26.3177 169.576 26.5684C169.718 26.8145 169.914 27.0059 170.164 27.1426C170.419 27.2747 170.709 27.3385 171.032 27.334C171.347 27.3385 171.627 27.2747 171.873 27.1426C172.124 27.0059 172.32 26.8145 172.461 26.5684C172.607 26.3177 172.682 26.026 172.687 25.6934C172.682 25.3607 172.607 25.069 172.461 24.8184C172.32 24.5677 172.124 24.374 171.873 24.2373C171.627 24.096 171.347 24.0254 171.032 24.0254ZM189.481 31.2168H187.95V18.8574H189.481V31.2168ZM185.79 20.1699C185.79 22.1341 185.346 23.859 184.457 25.3447C183.568 26.8258 182.094 28.054 180.034 29.0293L179.241 27.8125C180.832 27.056 182.028 26.1514 182.83 25.0986C183.637 24.0413 184.108 22.7995 184.245 21.373H179.87V20.1699H185.79Z" fill="#B3B3B3"/>
</svg>
