<svg width="36" height="37" viewBox="0 0 36 37" fill="none" xmlns="http://www.w3.org/2000/svg">
<path d="M8.86131 32.369H27.1525C30.3019 32.369 31.8685 30.8024 31.8685 27.6987V9.30073C31.8685 6.19701 30.3019 4.63037 27.1525 4.63037H8.86131C5.72738 4.63037 4.12988 6.18223 4.12988 9.30073V27.6993C4.12988 30.8178 5.72738 32.369 8.86131 32.369ZM18.0072 20.7384C17.2088 20.7384 16.7717 20.2711 16.7408 19.472L16.5306 12.0297C16.5004 11.2004 17.133 10.6128 17.9918 10.6128C18.8359 10.6128 19.4987 11.2158 19.4685 12.0444L19.2422 19.4727C19.2126 20.2859 18.7755 20.7384 18.0072 20.7384ZM18.0072 26.2818C17.133 26.2818 16.3197 25.5888 16.3197 24.6554C16.3197 23.7207 17.1182 23.0277 18.0072 23.0277C18.8809 23.0277 19.6947 23.7059 19.6947 24.6547C19.6947 25.6036 18.8655 26.2818 18.0072 26.2818Z" fill="white"/>
</svg>
