<svg width="36" height="37" viewBox="0 0 36 37" fill="none" xmlns="http://www.w3.org/2000/svg">
<path d="M34.5 15.5C34.5 14.7044 34.1839 13.9413 33.6213 13.3787C33.0587 12.8161 32.2956 12.5 31.5 12.5H22.02L23.46 5.645C23.49 5.495 23.505 5.33 23.505 5.165C23.505 4.55 23.25 3.98 22.845 3.575L21.255 2L11.385 11.87C10.83 12.425 10.5 13.175 10.5 14V29C10.5 29.7956 10.8161 30.5587 11.3787 31.1213C11.9413 31.6839 12.7044 32 13.5 32H27C28.245 32 29.31 31.25 29.76 30.17L34.29 19.595C34.425 19.25 34.5 18.89 34.5 18.5V15.5ZM1.5 32H7.5V14H1.5V32Z" fill="white"/>
</svg>
