<svg width="36" height="37" viewBox="0 0 36 37" fill="none" xmlns="http://www.w3.org/2000/svg">
<path d="M32.4952 12.3969C31.7064 10.5144 30.559 8.80331 29.1167 7.35902C27.6788 5.91223 25.9707 4.76195 24.0894 3.97347C22.1622 3.16181 20.0915 2.74576 18.0003 2.75003H17.93C15.803 2.76058 13.7464 3.18245 11.8093 4.01214C9.94416 4.80871 8.25209 5.96104 6.82765 7.40472C5.39936 8.84575 4.26502 10.5509 3.48781 12.425C2.68104 14.374 2.27224 16.4646 2.28547 18.5739C2.29601 21.0137 2.87961 23.436 3.96945 25.6016V30.9453C3.96945 31.8383 4.69367 32.5625 5.58312 32.5625H10.9198C13.0956 33.6604 15.4965 34.2381 17.9335 34.25H18.0073C20.1097 34.25 22.1452 33.8422 24.0648 33.0442C25.9365 32.2651 27.6383 31.1282 29.0745 29.6973C30.523 28.2594 31.662 26.5789 32.4601 24.7051C33.2862 22.7645 33.7081 20.7008 33.7187 18.5703C33.7257 16.4293 33.3109 14.3516 32.4952 12.3969ZM10.9831 20.1875C10.055 20.1875 9.29914 19.4317 9.29914 18.5C9.29914 17.5684 10.055 16.8125 10.9831 16.8125C11.9112 16.8125 12.6671 17.5684 12.6671 18.5C12.6671 19.4317 11.9148 20.1875 10.9831 20.1875ZM18.0003 20.1875C17.0722 20.1875 16.3163 19.4317 16.3163 18.5C16.3163 17.5684 17.0722 16.8125 18.0003 16.8125C18.9284 16.8125 19.6843 17.5684 19.6843 18.5C19.6843 19.4317 18.9284 20.1875 18.0003 20.1875ZM25.0175 20.1875C24.0894 20.1875 23.3335 19.4317 23.3335 18.5C23.3335 17.5684 24.0894 16.8125 25.0175 16.8125C25.9456 16.8125 26.7015 17.5684 26.7015 18.5C26.7015 19.4317 25.9456 20.1875 25.0175 20.1875Z" fill="white"/>
</svg>
