<svg width="36" height="37" viewBox="0 0 36 37" fill="none" xmlns="http://www.w3.org/2000/svg">
<path d="M22.41 29.3036C22.2034 30.3208 21.6515 31.2354 20.8478 31.8923C20.0441 32.5492 19.038 32.9081 18 32.9081C16.9619 32.9081 15.9558 32.5492 15.1521 31.8923C14.3484 31.2354 13.7965 30.3208 13.59 29.3036H22.41ZM17.9964 4.09998C23.6646 4.09998 28.3356 8.30298 28.7676 13.739L28.791 14.1404L28.8 14.5436L28.7982 21.0344L30.5154 25.691L30.5604 25.844L30.5892 25.9988L30.5982 26.159C30.5982 26.726 30.2454 27.221 29.6586 27.4316L29.4534 27.491L29.2482 27.509H6.75177C6.59276 27.5067 6.43523 27.4781 6.28557 27.4244C5.76897 27.2354 5.42877 26.7548 5.41797 26.1356L5.42517 25.925L5.48637 25.691L7.19637 21.0398L7.19997 14.5274L7.20717 14.1224C7.42857 8.51178 12.1878 4.09998 17.9964 4.09998Z" fill="white"/>
</svg>
