<svg width="36" height="37" viewBox="0 0 36 37" fill="none" xmlns="http://www.w3.org/2000/svg">
<path d="M8.86131 32.369H27.1525C30.3019 32.369 31.8685 30.8024 31.8685 27.6987V9.30073C31.8685 6.19701 30.3019 4.63037 27.1525 4.63037H8.86131C5.72738 4.63037 4.12988 6.18223 4.12988 9.30073V27.6993C4.12988 30.8178 5.72738 32.369 8.86131 32.369ZM8.90631 29.9442C7.4001 29.9442 6.55603 29.1457 6.55603 27.5784V9.42287C6.55603 7.85559 7.4001 7.05716 8.90631 7.05716H27.1075C28.599 7.05716 29.443 7.85559 29.443 9.42287V27.5772C29.443 29.1444 28.599 29.9429 27.1075 29.9429L8.90631 29.9442ZM18.0072 21.1904C18.7305 21.1904 19.1374 20.7834 19.1515 19.9998L19.3778 12.0444C19.3932 11.2762 18.7902 10.7034 17.9918 10.7034C17.1786 10.7034 16.6058 11.2608 16.6206 12.0297L16.8167 19.9998C16.8315 20.768 17.2538 21.1904 18.0072 21.1904ZM18.0072 26.087C18.8809 26.087 19.6337 25.394 19.6337 24.5197C19.6337 23.6454 18.8957 22.9531 18.0072 22.9531C17.1182 22.9531 16.3795 23.6609 16.3795 24.5197C16.3795 25.3786 17.133 26.087 18.0072 26.087Z" fill="white"/>
</svg>
