<svg width="36" height="37" viewBox="0 0 36 37" fill="none" xmlns="http://www.w3.org/2000/svg">
<path fill-rule="evenodd" clip-rule="evenodd" d="M12.816 2.08398C12.816 3.27746 12.3419 4.42205 11.498 5.26596C10.6541 6.10988 9.50947 6.58399 8.316 6.58399V8.08398C9.50947 8.08398 10.6541 8.55809 11.498 9.402C12.3419 10.2459 12.816 11.3905 12.816 12.584H14.316C14.316 11.3905 14.7901 10.2459 15.634 9.402C16.4779 8.55809 17.6225 8.08398 18.816 8.08398V6.58399C17.6225 6.58399 16.4779 6.10988 15.634 5.26596C14.7901 4.42205 14.316 3.27746 14.316 2.08398H12.816ZM6.666 12.668V15.584H9.585V18.584H6.6675V21.5H3.6675V18.584H0.75V15.584H3.666V12.668H6.666ZM13.5345 14.834V23.8025C12.3907 23.1421 11.061 22.8776 9.75151 23.0499C8.44206 23.2223 7.22606 23.8219 6.2921 24.7558C5.35814 25.6896 4.7584 26.9055 4.5859 28.215C4.41339 29.5244 4.67777 30.8542 5.33801 31.9981C5.99826 33.1419 7.01748 34.036 8.23762 34.5416C9.45776 35.0472 10.8106 35.1361 12.0864 34.7945C13.3622 34.4528 14.4897 33.6998 15.2939 32.6521C16.0981 31.6045 16.5342 30.3207 16.5345 29V16.58L31.5345 11.5805V19.3025C30.3907 18.6421 29.061 18.3776 27.7515 18.5499C26.4421 18.7223 25.2261 19.3219 24.2921 20.2558C23.3581 21.1896 22.7584 22.4055 22.5859 23.715C22.4134 25.0244 22.6778 26.3542 23.338 27.4981C23.9983 28.6419 25.0175 29.536 26.2376 30.0416C27.4578 30.5472 28.8106 30.6361 30.0864 30.2945C31.3622 29.9528 32.4897 29.1998 33.2939 28.1521C34.0981 27.1045 34.5342 25.8207 34.5345 24.5V2.16948L21.066 6.65749V10.334H18.816C18.2193 10.334 17.647 10.571 17.225 10.993C16.8031 11.415 16.566 11.9872 16.566 12.584V14.834H13.5345Z" fill="white"/>
</svg>
