<svg width="36" height="37" viewBox="0 0 36 37" fill="none" xmlns="http://www.w3.org/2000/svg">
<path d="M18 2.98718C26.2845 2.98718 33 9.67395 33 17.923C33.0035 20.2551 32.4563 22.5554 31.4025 24.6381C31.2913 24.2133 31.0875 23.8181 30.8055 23.4806L30.621 23.279L28.5 21.1671L26.379 23.279L26.2035 23.4687C25.8234 23.9185 25.5851 24.47 25.5184 25.0541C25.4517 25.6381 25.5595 26.2288 25.8284 26.7522C26.0973 27.2755 26.5152 27.7082 27.03 27.9961C27.5447 28.284 28.1333 28.4143 28.722 28.3706C27.3265 29.7938 25.6587 30.9242 23.8172 31.6951C21.9756 32.466 19.9976 32.8617 18 32.8588C9.7155 32.8588 3 26.172 3 17.923C3 9.67395 9.7155 2.98718 18 2.98718ZM18 22.4037C15.93 22.4037 14.055 23.2401 12.699 24.5888L12.45 24.8487L13.8675 26.1332C15.0525 25.6627 16.473 25.3909 18 25.3909C19.3575 25.3909 20.631 25.606 21.729 25.9824L22.1325 26.1317L23.55 24.8472C22.8469 24.0774 21.99 23.4624 21.0343 23.0416C20.0785 22.6208 19.045 22.4036 18 22.4037ZM12.75 14.9358C12.1533 14.9358 11.581 15.1719 11.159 15.592C10.7371 16.0122 10.5 16.582 10.5 17.1762C10.5 17.7704 10.7371 18.3402 11.159 18.7604C11.581 19.1805 12.1533 19.4166 12.75 19.4166C13.3467 19.4166 13.919 19.1805 14.341 18.7604C14.7629 18.3402 15 17.7704 15 17.1762C15 16.582 14.7629 16.0122 14.341 15.592C13.919 15.1719 13.3467 14.9358 12.75 14.9358ZM23.25 14.9358C22.6533 14.9358 22.081 15.1719 21.659 15.592C21.2371 16.0122 21 16.582 21 17.1762C21 17.7704 21.2371 18.3402 21.659 18.7604C22.081 19.1805 22.6533 19.4166 23.25 19.4166C23.8467 19.4166 24.419 19.1805 24.841 18.7604C25.2629 18.3402 25.5 17.7704 25.5 17.1762C25.5 16.582 25.2629 16.0122 24.841 15.592C24.419 15.1719 23.8467 14.9358 23.25 14.9358Z" fill="white"/>
</svg>
