<svg width="45" height="32" viewBox="0 0 45 32" fill="none" xmlns="http://www.w3.org/2000/svg">
<path d="M31.5541 13.433C28.6907 13.433 27.259 12.0013 27.259 9.07828V3.70947H31.3751V8.36244C31.3751 9.61516 31.912 10.2117 32.9858 10.152H41.1881V13.433H36.2965V15.1033H44.3199V18.2947H24.2764V15.1033H32.2998V13.433H31.5541ZM31.7927 26.855V27.0638C31.7927 27.3919 31.8524 27.6305 32.0313 27.7498C32.1506 27.8691 32.3892 27.9288 32.7472 27.9288H40.7407V31.0606H31.8225C30.4803 31.0606 29.496 30.7325 28.8399 30.1359C28.1538 29.5096 27.8257 28.5253 27.8257 27.1533V23.8127H36.6843V22.6793H27.8257V19.5474H40.7407V26.855H31.7927Z" fill="white"/>
<path d="M23.2587 0V14.3168H19.262V8.56026H17.4127V14.3168H13.4159V0H17.4127V5.27933H19.262V0H23.2587ZM11.5965 0.954455V12.8851H4.67671C1.99231 12.8851 0.679932 11.5429 0.679932 8.8287V0.954455H4.64688V3.99678H7.62955V0.954455H11.5965ZM14.7283 26.5159C11.8649 26.5159 10.4333 25.0544 10.4333 22.1612V17.1802H14.5493V21.4454C14.5493 22.6981 15.0862 23.2648 16.16 23.235H20.6936V26.5159H14.7283ZM7.62955 9.69368V7.09876H4.64688V8.64974C4.64688 9.36559 4.94515 9.69368 5.60134 9.69368H7.62955Z" fill="white"/>
</svg>
