<svg width="101" height="126" viewBox="0 0 101 126" fill="none" xmlns="http://www.w3.org/2000/svg">
<path d="M34.7 9.99977C33.1 11.7998 32.1 13.9998 31.5 16.3998C31.3 16.9998 30.5 20.7998 30.5 23.5998L30.5 24.3998C30.5 27.1998 31.3 31.1998 31.5 31.7998C32.1 33.9998 33.1 36.1998 34.7 37.9998C38.3 41.9998 43.9 41.9998 48.5 39.9998C53.5 37.9998 57.9 35.7998 62.3 32.7998C65.7 30.3998 70.5 27.7998 70.5 23.9998C70.5 20.1998 65.7 17.5998 62.3 14.9998C58.1 11.9998 53.5 9.79977 48.5 7.79977C43.9 5.99977 38.3 5.99977 34.7 9.99977Z" fill="#333333"/>
<path d="M61.2174 17.4622C62.7401 15.8638 65.2069 18.3352 65.9999 20.0002C67.9999 23.5002 69.3733 25.5956 68.4216 25.5956C67.4699 25.5956 63.1207 19.4601 62.1691 19.9596C61.2174 20.4591 65.0241 30.9484 62.6449 31.9474C61.1632 32.5696 59.3141 19.4602 61.2174 17.4622Z" fill="#D9D9D9"/>
<path d="M56.8333 23.2262C57.7667 23.6328 60.2222 23.5651 61 23.2262L61.5 25.7679C60.3333 25.5985 57.7667 25.4629 56.8333 26.2763C55.6667 27.293 59.75 32.8848 58 33.9015C56.25 34.9182 54.5 27.8013 54.5 24.7512C54.5 21.7011 57.4167 14.0759 58.5833 15.0926C59.75 16.1093 55.6667 22.7178 56.8333 23.2262Z" fill="#D9D9D9"/>
<path d="M53 23.5C53 19.8819 55.6549 16.3426 56.5 14.5C56.5 12.4899 54.0625 12.1916 53.2062 12.7349C52 13.5 50.7542 19.2676 50.2472 22.7852C49.7401 26.3028 52.2754 30.3229 52.2754 32.333C52.2754 34.3431 50.2472 35.3481 48.2189 34.3431C46.1907 33.338 45.1765 29.3179 45.6836 24.7953C46.1907 20.2726 49.7401 16.2525 50.2472 12.7349C50.7542 9.21724 44.6695 6.70465 42.6412 8.71472C40.613 10.7248 39.5989 11.2273 38.0777 18.7651C36.5565 26.3028 33.5 28.9824 33.5 32.5C33.5 36.0176 36.0494 37.3582 40.1059 38.8657C44.1624 40.3733 41.1201 28.8154 40.613 22.7852C40.1059 16.755 42.6412 11.2273 45.1765 12.7349C47.7119 14.2424 44.6695 17.76 43.6554 22.7852C42.6412 27.8104 43.6554 33.8406 45.6836 36.8557C47.7119 39.8708 54.3037 34.8456 55.3178 33.8406C56.3319 32.8355 53 28.0226 53 23.5Z" fill="#D9D9D9"/>
<path d="M69.9278 87.824C63.7838 87.824 60.7118 84.752 60.7118 78.48V66.96H69.5438V76.944C69.5438 79.632 70.6958 80.912 72.9998 80.784H90.5998V87.824H80.1038V91.408H97.3198V98.256H54.3118V91.408H71.5278V87.824H69.9278ZM70.4398 116.624V117.072C70.4398 117.776 70.5678 118.288 70.9518 118.544C71.2078 118.8 71.7198 118.928 72.4878 118.928H89.6398V125.648H70.5038C67.6238 125.648 65.5118 124.944 64.1038 123.664C62.6318 122.32 61.9278 120.208 61.9278 117.264V110.096H80.9358V107.664H61.9278V100.944H89.6398V116.624H70.4398Z" fill="white"/>
<path d="M52.1282 59V89.72H43.5522V77.368H39.5842V89.72H31.0082V59H39.5842V70.328H43.5522V59H52.1282ZM27.1042 61.048V86.648H12.2562C6.49618 86.648 3.68018 83.768 3.68018 77.944V61.048H12.1922V67.576H18.5922V61.048H27.1042ZM33.8242 115.896C27.6802 115.896 24.6082 112.76 24.6082 106.552V95.864H33.4402V105.016C33.4402 107.704 34.5922 108.92 36.8962 108.856H46.6242V115.896H33.8242ZM18.5922 79.8V74.232H12.1922V77.56C12.1922 79.096 12.8322 79.8 14.2402 79.8H18.5922Z" fill="white"/>
</svg>
