<svg width="335" height="51" viewBox="0 0 335 51" fill="none" xmlns="http://www.w3.org/2000/svg">
<rect y="0.647949" width="335" height="50" rx="10" fill="#04C75B"/>
<rect x="117" y="17.1479" width="17" height="17" rx="8.5" fill="#04C75B"/>
<g clip-path="url(#clip0_789_19988)">
<path d="M127.637 26.0704L123.188 19.6479H119.5V31.6479H123.363V25.2259L127.812 31.6479H131.5V19.6479H127.637V26.0704Z" fill="white"/>
</g>
<path d="M146.447 20.7358V27.5308C147.657 27.5171 148.771 27.4282 150.029 27.1616L150.248 28.4468C148.676 28.7886 147.322 28.8433 145.764 28.8433H144.93V20.7358H146.447ZM155.074 19.5054V31.8647H153.625V19.5054H155.074ZM152.422 19.7651V31.2769H150.986V24.728H148.402V23.4976H150.986V19.7651H152.422ZM166.441 19.5054V31.8784H164.91V19.5054H166.441ZM159.783 20.4077C161.642 20.4077 162.996 22.103 163.009 24.769C162.996 27.4624 161.642 29.144 159.783 29.144C157.91 29.144 156.556 27.4624 156.556 24.769C156.556 22.103 157.91 20.4077 159.783 20.4077ZM159.783 21.7749C158.73 21.7749 158.019 22.8823 158.019 24.769C158.019 26.6694 158.73 27.7769 159.783 27.7769C160.822 27.7769 161.533 26.6694 161.533 24.769C161.533 22.8823 160.822 21.7749 159.783 21.7749ZM178.273 19.5054V31.8784H176.769V25.1792H174.253V28.8843H168.374V20.4624H169.905V23.5386H172.763V20.4624H174.253V23.9351H176.769V19.5054H178.273ZM169.905 27.6675H172.763V24.728H169.905V27.6675ZM193.924 29.1714V30.4292H182.631V29.1714H187.498V27.1616H183.971V23.1147H191.08V21.5835H183.944V20.353H192.584V24.3179H185.489V25.9175H192.871V27.1616H189.002V29.1714H193.924ZM204.211 20.7085V22.103C204.211 23.7573 204.211 25.4663 203.76 28.064L202.215 27.9272C202.693 25.4937 202.693 23.7026 202.693 22.103V21.939H195.57V20.7085H204.211ZM205.646 28.9253V30.1694H194.381V28.9253H205.646ZM216.425 19.519V28.4468H214.894V19.519H216.425ZM216.767 30.3882V31.6187H208.25V27.5444H209.781V30.3882H216.767ZM209.685 20.3257C211.558 20.3257 213.007 21.6245 213.007 23.4155C213.007 25.2476 211.558 26.519 209.685 26.519C207.798 26.519 206.349 25.2476 206.349 23.4155C206.349 21.6245 207.798 20.3257 209.685 20.3257ZM209.685 21.6519C208.632 21.6519 207.826 22.3491 207.839 23.4155C207.826 24.5093 208.632 25.1929 209.685 25.1929C210.711 25.1929 211.517 24.5093 211.517 23.4155C211.517 22.3491 210.711 21.6519 209.685 21.6519Z" fill="white"/>
<defs>
<clipPath id="clip0_789_19988">
<rect width="12" height="12" fill="white" transform="translate(119.5 19.6479)"/>
</clipPath>
</defs>
</svg>
