<svg width="29" height="28" viewBox="0 0 29 28" fill="none" xmlns="http://www.w3.org/2000/svg">
<path d="M14.7503 16.3327C16.039 16.3327 17.0837 15.288 17.0837 13.9993C17.0837 12.7107 16.039 11.666 14.7503 11.666C13.4617 11.666 12.417 12.7107 12.417 13.9993C12.417 15.288 13.4617 16.3327 14.7503 16.3327Z" stroke="#555555" stroke-width="2" stroke-linecap="round" stroke-linejoin="round"/>
<path d="M21.7503 12.8327C23.039 12.8327 24.0837 11.788 24.0837 10.4993C24.0837 9.21068 23.039 8.16602 21.7503 8.16602C20.4617 8.16602 19.417 9.21068 19.417 10.4993C19.417 11.788 20.4617 12.8327 21.7503 12.8327Z" stroke="#555555" stroke-width="2" stroke-linecap="round" stroke-linejoin="round"/>
<path d="M18.6211 4.23584C16.6442 3.45272 14.4762 3.28823 12.4039 3.76412C10.3315 4.24001 8.45248 5.33387 7.01534 6.90096C5.57821 8.46806 4.65071 10.4345 4.35556 12.5403C4.06041 14.646 4.41152 16.7917 5.36243 18.6935C6.31334 20.5953 7.81924 22.1636 9.6809 23.1909C11.5426 24.2182 13.6722 24.6561 15.7882 24.4467C17.9042 24.2372 19.9067 23.3903 21.5308 22.018C23.1549 20.6456 24.3241 18.8125 24.8837 16.7612M24.0834 10.4997V2.33301L26.4167 4.66634" stroke="#555555" stroke-width="2" stroke-linecap="round" stroke-linejoin="round"/>
</svg>
