<svg width="29" height="28" viewBox="0 0 29 28" fill="none" xmlns="http://www.w3.org/2000/svg">
<path d="M14.5003 16.3327C15.789 16.3327 16.8337 15.288 16.8337 13.9993C16.8337 12.7107 15.789 11.666 14.5003 11.666C13.2117 11.666 12.167 12.7107 12.167 13.9993C12.167 15.288 13.2117 16.3327 14.5003 16.3327Z" stroke="white" stroke-width="2" stroke-linecap="round" stroke-linejoin="round"/>
<path d="M21.5003 12.8327C22.789 12.8327 23.8337 11.788 23.8337 10.4993C23.8337 9.21068 22.789 8.16602 21.5003 8.16602C20.2117 8.16602 19.167 9.21068 19.167 10.4993C19.167 11.788 20.2117 12.8327 21.5003 12.8327Z" stroke="white" stroke-width="2" stroke-linecap="round" stroke-linejoin="round"/>
<path d="M18.3711 4.23584C16.3942 3.45272 14.2262 3.28823 12.1539 3.76412C10.0815 4.24001 8.20248 5.33387 6.76534 6.90096C5.32821 8.46806 4.40071 10.4345 4.10556 12.5403C3.81041 14.646 4.16152 16.7917 5.11243 18.6935C6.06334 20.5953 7.56924 22.1636 9.4309 23.1909C11.2926 24.2182 13.4222 24.6561 15.5382 24.4467C17.6542 24.2372 19.6567 23.3903 21.2808 22.018C22.9049 20.6456 24.0741 18.8125 24.6337 16.7612M23.8334 10.4997V2.33301L26.1667 4.66634" stroke="white" stroke-width="2" stroke-linecap="round" stroke-linejoin="round"/>
</svg>
