<svg width="29" height="28" viewBox="0 0 29 28" fill="none" xmlns="http://www.w3.org/2000/svg">
<path d="M20.9167 23.3327C20.1 23.3327 19.4097 23.0507 18.8458 22.4868C18.2819 21.923 18 21.2327 18 20.416C18 19.5993 18.2819 18.9091 18.8458 18.3452C19.4097 17.7813 20.1 17.4993 20.9167 17.4993C21.0722 17.4993 21.2472 17.5141 21.4417 17.5437C21.6361 17.5732 21.85 17.6362 22.0833 17.7327V12.8327C22.0833 12.5021 22.1953 12.2252 22.4193 12.002C22.6433 11.7788 22.9202 11.6668 23.25 11.666H25C25.3306 11.666 25.6078 11.778 25.8318 12.002C26.0558 12.226 26.1674 12.5029 26.1667 12.8327C26.1659 13.1625 26.0539 13.4397 25.8307 13.6645C25.6074 13.8893 25.3306 14.0009 25 13.9993H23.8333V20.416C23.8333 21.2327 23.5514 21.923 22.9875 22.4868C22.4236 23.0507 21.7333 23.3327 20.9167 23.3327ZM13.3333 13.9993C12.05 13.9993 10.9514 13.5424 10.0375 12.6285C9.12361 11.7146 8.66667 10.616 8.66667 9.33268C8.66667 8.04935 9.12361 6.95074 10.0375 6.03685C10.9514 5.12296 12.05 4.66602 13.3333 4.66602C14.6167 4.66602 15.7153 5.12296 16.6292 6.03685C17.5431 6.95074 18 8.04935 18 9.33268C18 10.616 17.5431 11.7146 16.6292 12.6285C15.7153 13.5424 14.6167 13.9993 13.3333 13.9993ZM5.16667 23.3327C4.83611 23.3327 4.55922 23.2207 4.336 22.9967C4.11278 22.7727 4.00078 22.4958 4 22.166V20.066C4 19.3855 4.17033 18.773 4.511 18.2285C4.85167 17.6841 5.30356 17.266 5.86667 16.9743C7.07222 16.3716 8.29722 15.9197 9.54167 15.6187C10.7861 15.3177 12.05 15.1668 13.3333 15.166C13.8778 15.166 14.4176 15.1952 14.9527 15.2535C15.4878 15.3118 16.0272 15.3993 16.5708 15.516C16.9014 15.5938 17.1102 15.798 17.1973 16.1285C17.2844 16.4591 17.1923 16.7605 16.9208 17.0327C16.5125 17.5188 16.2061 18.0488 16.0015 18.6228C15.7969 19.1968 15.6951 19.7946 15.6958 20.416C15.6958 20.6688 15.7106 20.9169 15.7402 21.1603C15.7697 21.4038 15.823 21.6515 15.9 21.9035C15.9972 22.2535 15.9537 22.5794 15.7693 22.8812C15.585 23.183 15.3272 23.3335 14.9958 23.3327H5.16667Z" fill="white"/>
</svg>
