<svg width="29" height="28" viewBox="0 0 29 28" fill="none" xmlns="http://www.w3.org/2000/svg">
<path d="M21.1667 23.3337C20.35 23.3337 19.6597 23.0517 19.0958 22.4878C18.5319 21.9239 18.25 21.2337 18.25 20.417C18.25 19.6003 18.5319 18.91 19.0958 18.3462C19.6597 17.7823 20.35 17.5003 21.1667 17.5003C21.3222 17.5003 21.4972 17.5151 21.6917 17.5447C21.8861 17.5742 22.1 17.6372 22.3333 17.7337V12.8337C22.3333 12.5031 22.4453 12.2262 22.6693 12.003C22.8933 11.7798 23.1702 11.6678 23.5 11.667H25.25C25.5806 11.667 25.8578 11.779 26.0818 12.003C26.3058 12.227 26.4174 12.5039 26.4167 12.8337C26.4159 13.1634 26.3039 13.4407 26.0807 13.6655C25.8574 13.8903 25.5806 14.0019 25.25 14.0003H24.0833V20.417C24.0833 21.2337 23.8014 21.9239 23.2375 22.4878C22.6736 23.0517 21.9833 23.3337 21.1667 23.3337ZM13.5833 14.0003C12.3 14.0003 11.2014 13.5434 10.2875 12.6295C9.37361 11.7156 8.91667 10.617 8.91667 9.33366C8.91667 8.05033 9.37361 6.95171 10.2875 6.03783C11.2014 5.12394 12.3 4.66699 13.5833 4.66699C14.8667 4.66699 15.9653 5.12394 16.8792 6.03783C17.7931 6.95171 18.25 8.05033 18.25 9.33366C18.25 10.617 17.7931 11.7156 16.8792 12.6295C15.9653 13.5434 14.8667 14.0003 13.5833 14.0003ZM5.41667 23.3337C5.08611 23.3337 4.80922 23.2217 4.586 22.9977C4.36278 22.7737 4.25078 22.4968 4.25 22.167V20.067C4.25 19.3864 4.42033 18.7739 4.761 18.2295C5.10167 17.685 5.55356 17.267 6.11667 16.9753C7.32222 16.3725 8.54722 15.9207 9.79167 15.6197C11.0361 15.3187 12.3 15.1678 13.5833 15.167C14.1278 15.167 14.6676 15.1962 15.2027 15.2545C15.7378 15.3128 16.2772 15.4003 16.8208 15.517C17.1514 15.5948 17.3602 15.7989 17.4473 16.1295C17.5344 16.46 17.4423 16.7614 17.1708 17.0337C16.7625 17.5198 16.4561 18.0498 16.2515 18.6238C16.0469 19.1978 15.9451 19.7955 15.9458 20.417C15.9458 20.6698 15.9606 20.9179 15.9902 21.1613C16.0197 21.4048 16.073 21.6525 16.15 21.9045C16.2472 22.2545 16.2037 22.5804 16.0193 22.8822C15.835 23.1839 15.5772 23.3344 15.2458 23.3337H5.41667Z" fill="#555555"/>
</svg>
