<svg width="29" height="28" viewBox="0 0 29 28" fill="none" xmlns="http://www.w3.org/2000/svg">
<path d="M4.25 8.16667V5.83333C4.25 5.21449 4.49583 4.621 4.93342 4.18342C5.371 3.74583 5.96449 3.5 6.58333 3.5H8.91667M20.5833 3.5H22.9167C23.5355 3.5 24.129 3.74583 24.5666 4.18342C25.0042 4.621 25.25 5.21449 25.25 5.83333V8.16667M25.25 19.8333V22.1667C25.25 22.7855 25.0042 23.379 24.5666 23.8166C24.129 24.2542 23.5355 24.5 22.9167 24.5H20.5833M8.91667 24.5H6.58333C5.96449 24.5 5.371 24.2542 4.93342 23.8166C4.49583 23.379 4.25 22.7855 4.25 22.1667V19.8333" stroke="#555555" stroke-width="1.8" stroke-linecap="round" stroke-linejoin="round"/>
<path d="M14.75 17.5C16.683 17.5 18.25 15.933 18.25 14C18.25 12.067 16.683 10.5 14.75 10.5C12.817 10.5 11.25 12.067 11.25 14C11.25 15.933 12.817 17.5 14.75 17.5Z" stroke="#555555" stroke-width="1.8" stroke-linecap="round" stroke-linejoin="round"/>
<path d="M19.4169 18.6669L17.2002 16.4502" stroke="#555555" stroke-width="1.8" stroke-linecap="round" stroke-linejoin="round"/>
</svg>
