<svg width="29" height="28" viewBox="0 0 29 28" fill="none" xmlns="http://www.w3.org/2000/svg">
<path d="M4 8.16667V5.83333C4 5.21449 4.24583 4.621 4.68342 4.18342C5.121 3.74583 5.71449 3.5 6.33333 3.5H8.66667M20.3333 3.5H22.6667C23.2855 3.5 23.879 3.74583 24.3166 4.18342C24.7542 4.621 25 5.21449 25 5.83333V8.16667M25 19.8333V22.1667C25 22.7855 24.7542 23.379 24.3166 23.8166C23.879 24.2542 23.2855 24.5 22.6667 24.5H20.3333M8.66667 24.5H6.33333C5.71449 24.5 5.121 24.2542 4.68342 23.8166C4.24583 23.379 4 22.7855 4 22.1667V19.8333" stroke="white" stroke-width="1.8" stroke-linecap="round" stroke-linejoin="round"/>
<path d="M14.5 17.5C16.433 17.5 18 15.933 18 14C18 12.067 16.433 10.5 14.5 10.5C12.567 10.5 11 12.067 11 14C11 15.933 12.567 17.5 14.5 17.5Z" stroke="white" stroke-width="1.8" stroke-linecap="round" stroke-linejoin="round"/>
<path d="M19.1669 18.6659L16.9502 16.4492" stroke="white" stroke-width="1.8" stroke-linecap="round" stroke-linejoin="round"/>
</svg>
