<svg width="29" height="28" viewBox="0 0 29 28" fill="none" xmlns="http://www.w3.org/2000/svg">
<path d="M24.417 10.5H4.58366C3.93933 10.5 3.41699 11.0223 3.41699 11.6667V23.3333C3.41699 23.9777 3.93933 24.5 4.58366 24.5H24.417C25.0613 24.5 25.5837 23.9777 25.5837 23.3333V11.6667C25.5837 11.0223 25.0613 10.5 24.417 10.5Z" stroke="#555555" stroke-width="1.5" stroke-linecap="round" stroke-linejoin="round"/>
<path d="M5.16699 7H23.8337M9.25032 3.5H19.7503M15.667 14V17.5" stroke="#555555" stroke-width="1.5" stroke-linecap="round" stroke-linejoin="round"/>
<path d="M11 19.1042C11 18.2175 11.7525 17.5 12.68 17.5H15.6667V19.3958C15.6667 20.2825 14.9142 21 13.9867 21H12.68C11.7525 21 11 20.2825 11 19.3958V19.1042Z" stroke="#555555" stroke-width="1.5" stroke-linejoin="round"/>
<path d="M18.5837 14.5833L15.667 14" stroke="#555555" stroke-width="1.5" stroke-linecap="round" stroke-linejoin="round"/>
</svg>
