<svg width="29" height="28" viewBox="0 0 29 28" fill="none" xmlns="http://www.w3.org/2000/svg">
<path d="M24.667 10.5H4.83366C4.18933 10.5 3.66699 11.0223 3.66699 11.6667V23.3333C3.66699 23.9777 4.18933 24.5 4.83366 24.5H24.667C25.3113 24.5 25.8337 23.9777 25.8337 23.3333V11.6667C25.8337 11.0223 25.3113 10.5 24.667 10.5Z" stroke="white" stroke-width="1.5" stroke-linecap="round" stroke-linejoin="round"/>
<path d="M5.41699 7H24.0837M9.50032 3.5H20.0003M15.917 14V17.5" stroke="white" stroke-width="1.5" stroke-linecap="round" stroke-linejoin="round"/>
<path d="M11.25 19.1042C11.25 18.2175 12.0025 17.5 12.93 17.5H15.9167V19.3958C15.9167 20.2825 15.1642 21 14.2367 21H12.93C12.0025 21 11.25 20.2825 11.25 19.3958V19.1042Z" stroke="white" stroke-width="1.5" stroke-linejoin="round"/>
<path d="M18.8337 14.5833L15.917 14" stroke="white" stroke-width="1.5" stroke-linecap="round" stroke-linejoin="round"/>
</svg>
