<svg width="24" height="24" viewBox="0 0 24 24" fill="none" xmlns="http://www.w3.org/2000/svg">
<path d="M12.0002 3C10.21 3 8.4931 3.71116 7.22723 4.97703C5.96136 6.2429 5.2502 7.95979 5.2502 9.75V13.3515L3.8042 16.9725C3.75891 17.0862 3.74215 17.2093 3.75536 17.331C3.76858 17.4527 3.81138 17.5693 3.88002 17.6706C3.94867 17.772 4.04108 17.855 4.14918 17.9124C4.25729 17.9698 4.3778 17.9999 4.5002 18H9.0002C9.0002 19.662 10.3382 21 12.0002 21C13.6622 21 15.0002 19.662 15.0002 18H19.5002C19.6226 17.9999 19.7431 17.9698 19.8512 17.9124C19.9593 17.855 20.0517 17.772 20.1204 17.6706C20.189 17.5693 20.2318 17.4527 20.245 17.331C20.2583 17.2093 20.2415 17.0862 20.1962 16.9725L18.7502 13.35V9.75C18.7502 7.95979 18.039 6.2429 16.7732 4.97703C15.5073 3.71116 13.7904 3 12.0002 3ZM13.5002 18C13.5002 18.834 12.8342 19.5 12.0002 19.5C11.1662 19.5 10.5002 18.834 10.5002 18H13.5002ZM6.7502 9.75C6.7502 8.35761 7.30333 7.02226 8.28789 6.03769C9.27246 5.05312 10.6078 4.5 12.0002 4.5C13.3926 4.5 14.7279 5.05312 15.7125 6.03769C16.6971 7.02226 17.2502 8.35761 17.2502 9.75V13.497C17.2505 13.5921 17.2688 13.6863 17.3042 13.7745L18.3932 16.5H5.6072L6.6962 13.7745C6.73163 13.6863 6.74996 13.5921 6.7502 13.497V9.75Z" fill="white"/>
</svg>
