<svg width="48" height="48" viewBox="0 0 48 48" fill="none" xmlns="http://www.w3.org/2000/svg">
<path d="M8.2 9.99977C6.6 11.7998 5.6 13.9998 5 16.3998C4.8 16.9998 4 20.7998 4 23.5998L4 24.3998C4 27.1998 4.8 31.1998 5 31.7998C5.6 33.9998 6.6 36.1998 8.2 37.9998C11.8 41.9998 17.4 41.9998 22 39.9998C27 37.9998 31.4 35.7998 35.8 32.7998C39.2 30.3998 44 27.7998 44 23.9998C44 20.1998 39.2 17.5998 35.8 14.9998C31.6 11.9998 27 9.79977 22 7.79977C17.4 5.99977 11.8 5.99977 8.2 9.99977Z" fill="#333333"/>
<path d="M34.7177 17.4617C36.2403 15.8633 38.7071 18.3347 39.5002 19.9997C41.5002 23.4997 42.8735 25.5951 41.9218 25.5951C40.9702 25.5951 36.621 19.4597 35.6693 19.9591C34.7177 20.4586 38.5243 30.9479 36.1452 31.9469C34.6634 32.5691 32.8143 19.4597 34.7177 17.4617Z" fill="#D9D9D9"/>
<path d="M30.3333 23.2262C31.2667 23.6328 33.7222 23.5651 34.5 23.2262L35 25.7679C33.8333 25.5985 31.2667 25.4629 30.3333 26.2763C29.1667 27.293 33.25 32.8848 31.5 33.9015C29.75 34.9182 28 27.8013 28 24.7512C28 21.7011 30.9167 14.0759 32.0833 15.0926C33.25 16.1093 29.1667 22.7178 30.3333 23.2262Z" fill="#D9D9D9"/>
<path d="M26.5 23.5C26.5 19.8819 29.1549 16.3426 30 14.5C30 12.4899 27.5625 12.1916 26.7062 12.7349C25.5 13.5 24.2542 19.2676 23.7472 22.7852C23.2401 26.3028 25.7754 30.3229 25.7754 32.333C25.7754 34.3431 23.7472 35.3481 21.7189 34.3431C19.6907 33.338 18.6765 29.3179 19.1836 24.7953C19.6907 20.2726 23.2401 16.2525 23.7472 12.7349C24.2542 9.21724 18.1695 6.70465 16.1412 8.71472C14.113 10.7248 13.0989 11.2273 11.5777 18.7651C10.0565 26.3028 7 28.9824 7 32.5C7 36.0176 9.54943 37.3582 13.6059 38.8657C17.6624 40.3733 14.6201 28.8154 14.113 22.7852C13.6059 16.755 16.1412 11.2273 18.6765 12.7349C21.2119 14.2424 18.1695 17.76 17.1554 22.7852C16.1412 27.8104 17.1554 33.8406 19.1836 36.8557C21.2119 39.8708 27.8037 34.8456 28.8178 33.8406C29.8319 32.8355 26.5 28.0226 26.5 23.5Z" fill="#D9D9D9"/>
</svg>
