<svg width="25" height="24" viewBox="0 0 25 24" fill="none" xmlns="http://www.w3.org/2000/svg">
<path d="M11.1 13.4L8.95 11.25C8.76667 11.0667 8.53333 10.975 8.25 10.975C7.96667 10.975 7.73333 11.0667 7.55 11.25C7.36667 11.4333 7.275 11.6667 7.275 11.95C7.275 12.2333 7.36667 12.4667 7.55 12.65L10.4 15.5C10.6 15.7 10.8333 15.8 11.1 15.8C11.3667 15.8 11.6 15.7 11.8 15.5L17.45 9.85C17.6333 9.66667 17.725 9.43333 17.725 9.15C17.725 8.86667 17.6333 8.63333 17.45 8.45C17.2667 8.26667 17.0333 8.175 16.75 8.175C16.4667 8.175 16.2333 8.26667 16.05 8.45L11.1 13.4ZM5.5 21C4.95 21 4.47933 20.8043 4.088 20.413C3.69667 20.0217 3.50067 19.5507 3.5 19V5C3.5 4.45 3.696 3.97933 4.088 3.588C4.48 3.19667 4.95067 3.00067 5.5 3H19.5C20.05 3 20.521 3.196 20.913 3.588C21.305 3.98 21.5007 4.45067 21.5 5V19C21.5 19.55 21.3043 20.021 20.913 20.413C20.5217 20.805 20.0507 21.0007 19.5 21H5.5Z" fill="white"/>
</svg>
