<svg width="25" height="24" viewBox="0 0 25 24" fill="none" xmlns="http://www.w3.org/2000/svg">
<path d="M8.00006 5.6L5.50006 7L6.90006 4.5L5.50006 2L8.00006 3.4L10.5001 2L9.10006 4.5L10.5001 7L8.00006 5.6ZM20.0001 15.4L22.5001 14L21.1001 16.5L22.5001 19L20.0001 17.6L17.5001 19L18.9001 16.5L17.5001 14L20.0001 15.4ZM22.5001 2L21.1001 4.5L22.5001 7L20.0001 5.6L17.5001 7L18.9001 4.5L17.5001 2L20.0001 3.4L22.5001 2ZM13.8401 12.78L16.2801 10.34L14.1601 8.22L11.7201 10.66L13.8401 12.78ZM14.8701 7.29L17.2101 9.63C17.6001 10 17.6001 10.65 17.2101 11.04L5.54006 22.71C5.15006 23.1 4.50006 23.1 4.13006 22.71L1.79006 20.37C1.40006 20 1.40006 19.35 1.79006 18.96L13.4601 7.29C13.8501 6.9 14.5001 6.9 14.8701 7.29Z" fill="#999999"/>
</svg>
