<svg xmlns="http://www.w3.org/2000/svg" width="59" height="59" viewBox="0 0 59 59" fill="none">
  <g clip-path="url(#clip0_1078_6412)">
    <g filter="url(#filter0_d_1078_6412)">
      <path d="M17.163 10.9883C16.9423 10.8575 16.691 10.7875 16.4346 10.7852C16.1781 10.783 15.9256 10.8487 15.7027 10.9756C15.4799 11.1025 15.2946 11.2862 15.1656 11.5079C15.0367 11.7296 14.9688 11.9815 14.9688 12.238V45.8876C14.9688 46.144 15.0367 46.3959 15.1656 46.6177C15.2946 46.8394 15.4799 47.0231 15.7027 47.15C15.9256 47.2769 16.1781 47.3426 16.4346 47.3404C16.691 47.3381 16.9423 47.2681 17.163 47.1372L45.5546 30.3125C45.7715 30.1838 45.9511 30.0009 46.0758 29.7818C46.2006 29.5627 46.2662 29.3149 46.2662 29.0628C46.2662 28.8107 46.2006 28.5629 46.0758 28.3437C45.9511 28.1246 45.7715 27.9418 45.5546 27.8131L17.163 10.9883Z" fill="white"/>
    </g>
  </g>
  <defs>
    <filter id="filter0_d_1078_6412" x="5.96875" y="3.78516" width="49.2974" height="54.5557" filterUnits="userSpaceOnUse" color-interpolation-filters="sRGB">
      <feFlood flood-opacity="0" result="BackgroundImageFix"/>
      <feColorMatrix in="SourceAlpha" type="matrix" values="0 0 0 0 0 0 0 0 0 0 0 0 0 0 0 0 0 0 127 0" result="hardAlpha"/>
      <feOffset dy="2"/>
      <feGaussianBlur stdDeviation="4.5"/>
      <feComposite in2="hardAlpha" operator="out"/>
      <feColorMatrix type="matrix" values="0 0 0 0 0 0 0 0 0 0 0 0 0 0 0 0 0 0 0.25 0"/>
      <feBlend mode="normal" in2="BackgroundImageFix" result="effect1_dropShadow_1078_6412"/>
      <feBlend mode="normal" in="SourceGraphic" in2="effect1_dropShadow_1078_6412" result="shape"/>
    </filter>
    <clipPath id="clip0_1078_6412">
      <rect width="58.125" height="58.125" fill="white" transform="translate(0.4375)"/>
    </clipPath>
  </defs>
</svg>