<svg xmlns="http://www.w3.org/2000/svg" width="36" height="36" viewBox="0 0 36 36" fill="none">
  <path fill-rule="evenodd" clip-rule="evenodd" d="M12.816 1.58398C12.816 2.77746 12.3419 3.92205 11.498 4.76596C10.6541 5.60988 9.50947 6.08399 8.316 6.08399V7.58398C9.50947 7.58398 10.6541 8.05809 11.498 8.902C12.3419 9.74592 12.816 10.8905 12.816 12.084H14.316C14.316 10.8905 14.7901 9.74592 15.634 8.902C16.4779 8.05809 17.6225 7.58398 18.816 7.58398V6.08399C17.6225 6.08399 16.4779 5.60988 15.634 4.76596C14.7901 3.92205 14.316 2.77746 14.316 1.58398H12.816ZM6.666 12.168V15.084H9.585V18.084H6.6675V21H3.6675V18.084H0.75V15.084H3.666V12.168H6.666ZM13.5345 14.334V23.3025C12.3907 22.6421 11.061 22.3776 9.75151 22.5499C8.44206 22.7223 7.22606 23.3219 6.2921 24.2558C5.35814 25.1896 4.7584 26.4055 4.5859 27.715C4.41339 29.0244 4.67777 30.3542 5.33801 31.4981C5.99826 32.6419 7.01748 33.536 8.23762 34.0416C9.45776 34.5472 10.8106 34.6361 12.0864 34.2945C13.3622 33.9528 14.4897 33.1998 15.2939 32.1521C16.0981 31.1045 16.5342 29.8207 16.5345 28.5V16.08L31.5345 11.0805V18.8025C30.3907 18.1421 29.061 17.8776 27.7515 18.0499C26.4421 18.2223 25.2261 18.8219 24.2921 19.7558C23.3581 20.6896 22.7584 21.9055 22.5859 23.215C22.4134 24.5244 22.6778 25.8542 23.338 26.9981C23.9983 28.1419 25.0175 29.036 26.2376 29.5416C27.4578 30.0472 28.8106 30.1361 30.0864 29.7945C31.3622 29.4528 32.4897 28.6998 33.2939 27.6521C34.0981 26.6045 34.5342 25.3207 34.5345 24V1.66948L21.066 6.15749V9.83399H18.816C18.2193 9.83399 17.647 10.071 17.225 10.493C16.8031 10.915 16.566 11.4872 16.566 12.084V14.334H13.5345Z" fill="white"/>
</svg>